<?xml version="1.0" encoding="UTF-8"?>
<svg width="393px" height="250px" viewBox="0 0 393 250" version="1.1" xmlns="http://www.w3.org/2000/svg" xmlns:xlink="http://www.w3.org/1999/xlink">
    <title>Group</title>
    <g id="Logo" stroke="none" stroke-width="1" fill="none" fill-rule="evenodd">
        <g id="Logo---Vector" transform="translate(-344, -145)" fill="#FFFFFF">
            <g id="Group" transform="translate(344, 145)">
                <g id="ace" transform="translate(0, 177.6766)" fill-rule="nonzero">
                    <path d="M73.7332116,70.913586 L51.0352249,70.913586 L51.0352249,63.4415779 C49.5314245,65.979241 46.9702645,68.0939603 43.3517449,69.7857357 C39.7332253,71.4775111 35.85624,72.3233988 31.720789,72.3233988 C25.8935625,72.3233988 20.5597706,70.702114 15.7194132,67.4595445 C10.8790558,64.216975 7.04906421,59.8465552 4.22943853,54.3482851 C1.40981284,48.850015 0,42.8113166 0,36.23219 C0,29.6530634 1.40981284,23.5908682 4.22943853,18.0456044 C7.04906421,12.5003405 10.8790558,8.10642384 15.7194132,4.86385431 C20.5597706,1.62128477 25.8935625,0 31.720789,0 C35.7622524,0 39.592244,0.845887705 43.2107636,2.53766312 C46.8292832,4.22943853 49.437437,6.34415779 51.0352249,8.88182091 L51.0352249,1.40981284 L73.7332116,1.40981284 L73.7332116,70.913586 Z M22.1340616,36.23219 C22.1340616,40.367641 23.5438745,43.8451794 26.3635001,46.6648051 C29.1831258,49.4844308 32.6606642,50.8942436 36.7961152,50.8942436 C39.8037159,50.8942436 42.5763478,50.1893372 45.114011,48.7795243 C47.6516741,47.3697115 49.625412,45.5369548 51.0352249,43.2812543 L51.0352249,29.1831258 C49.625412,26.9274253 47.6751709,25.0946686 45.1845016,23.6848557 C42.6938322,22.2750429 39.8977034,21.5701365 36.7961152,21.5701365 C32.6606642,21.5701365 29.1831258,22.9564524 26.3635001,25.7290844 C23.5438745,28.5017163 22.1340616,32.0027515 22.1340616,36.23219 Z" id="Shape"></path>
                    <path d="M152.964693,51.7401313 C150.333043,58.0372953 146.033114,63.0421309 140.064906,66.7546381 C134.096698,70.4671452 127.353093,72.3233988 119.834092,72.3233988 C112.973002,72.3233988 106.769826,70.7726047 101.224562,67.6710164 C95.6792982,64.5694282 91.3088784,60.269499 88.1133026,54.7712289 C84.9177269,49.2729588 83.319939,43.140273 83.319939,36.3731713 C83.319939,29.5120822 84.9177269,23.3089057 88.1133026,17.7636418 C91.3088784,12.218378 95.6792982,7.87145504 101.224562,4.72287302 C106.769826,1.57429101 112.973002,0 119.834092,0 C126.601193,0 132.733879,1.57429101 138.232149,4.72287302 C143.730419,7.87145504 147.936361,12.0773967 150.849974,17.340698 L131.676519,28.1962568 C130.454682,26.2225189 128.8099,24.6482279 126.742175,23.4733838 C124.674449,22.2985398 122.371755,21.7111178 119.834092,21.7111178 C115.604653,21.7111178 112.150612,23.0974337 109.471967,25.8700657 C106.793323,28.6426976 105.454001,32.1437328 105.454001,36.3731713 C105.454001,40.5086223 106.793323,43.91567 109.471967,46.5943144 C112.150612,49.2729588 115.604653,50.612281 119.834092,50.612281 C122.747705,50.612281 125.355859,49.9308715 127.658553,48.5680524 C129.961247,47.2052333 131.676519,45.301986 132.80437,42.8583104 L152.964693,51.7401313 Z" id="Path"></path>
                    <path d="M193.990247,72.3233988 C187.317133,72.3233988 181.16095,70.7256109 175.521699,67.5300351 C169.882447,64.3344594 165.441537,59.9405427 162.198967,54.3482851 C158.956398,48.7560275 157.335113,42.6233416 157.335113,35.9502275 C157.335113,29.2771134 158.932901,23.1914213 162.128477,17.6931512 C165.324053,12.1948811 169.694472,7.87145504 175.239736,4.72287302 C180.785,1.57429101 186.894189,0 193.567303,0 C199.77048,0 205.456725,1.48030348 210.626039,4.44091045 C215.795352,7.40151742 219.860313,11.419484 222.82092,16.4948103 C225.781527,21.5701365 227.26183,27.1623941 227.26183,33.2715831 C227.26183,35.8092462 227.026861,38.8168469 226.556924,42.2943853 L179.187212,42.2943853 C180.127087,45.7719236 181.936347,48.450568 184.614992,50.3303185 C187.293636,52.2100689 190.65369,53.1499442 194.695154,53.1499442 C197.232817,53.1499442 199.746983,52.586019 202.237652,51.4581687 C204.728322,50.3303185 206.443594,48.9205056 207.383469,47.2287302 L225.147111,58.0842891 C222.703435,62.5956902 218.732462,66.0967254 213.234192,68.5873948 C207.735922,71.0780641 201.321274,72.3233988 193.990247,72.3233988 Z M204.563843,27.6323317 C204.093906,25.0006811 202.70759,22.8154712 200.404896,21.076702 C198.102201,19.3379328 195.447054,18.4685482 192.439453,18.4685482 C185.484376,18.4685482 181.113956,21.5231427 179.328194,27.6323317 L204.563843,27.6323317 Z" id="Shape"></path>
                </g>
                <g id=".radio" transform="translate(233.179, 202.8019)" fill-rule="nonzero">
                    <path d="M6.74258316,46.4012314 C4.8628327,46.4012314 3.26913123,45.7576212 1.96147874,44.4704007 C0.653826246,43.1831803 0,41.620127 0,39.7812406 C0,37.9423543 0.653826246,36.389517 1.96147874,35.1227286 C3.26913123,33.8559403 4.8628327,33.2225461 6.74258316,33.2225461 C8.62233361,33.2225461 10.2160351,33.8559403 11.5236876,35.1227286 C12.8313401,36.389517 13.4851663,37.9423543 13.4851663,39.7812406 C13.4851663,41.620127 12.8313401,43.1831803 11.5236876,44.4704007 C10.2160351,45.7576212 8.62233361,46.4012314 6.74258316,46.4012314 Z" id="Path"></path>
                    <path d="M17.4081238,15.5079413 L28.4414417,15.5079413 L28.4414417,18.5114556 C29.0544038,17.4898521 30.0351432,16.6317051 31.3836598,15.9370147 C32.7321764,15.2423244 33.9989648,14.8949792 35.1840248,14.8949792 C36.695998,14.8949792 38.0036505,15.0992999 39.1069823,15.5079413 L38.4940202,25.8057046 C37.2272319,25.3561991 35.817419,25.1314463 34.2645817,25.1314463 C33.3247065,25.1314463 32.2520228,25.4685755 31.0465306,26.1428338 C29.8410385,26.8170921 28.9726755,27.7467513 28.4414417,28.9318114 L28.4414417,45.7882693 L17.4081238,45.7882693 L17.4081238,15.5079413 Z" id="Path"></path>
                    <path d="M72.3908246,45.7882693 L61.3575067,45.7882693 L61.3575067,42.8460512 C60.7445446,43.9085188 59.7025091,44.7666658 58.2314,45.420492 C56.760291,46.0743182 55.1461574,46.4012314 53.3889994,46.4012314 C50.937151,46.4012314 48.6691912,45.696325 46.58512,44.2865121 C44.5010488,42.8766993 42.8562672,40.9560847 41.6507751,38.5246683 C40.4452829,36.093252 39.8425368,33.467731 39.8425368,30.6481053 C39.8425368,27.8284796 40.4452829,25.2029586 41.6507751,22.7715422 C42.8562672,20.3401259 44.5010488,18.4195113 46.58512,17.0096984 C48.6691912,15.5998856 50.937151,14.8949792 53.3889994,14.8949792 C55.1052933,14.8949792 56.6989947,15.2218923 58.1701038,15.8757185 C59.6412128,16.5295448 60.7036805,17.3876917 61.3575067,18.4501594 L61.3575067,15.5079413 L72.3908246,15.5079413 L72.3908246,45.7882693 Z M50.6306699,30.6481053 C50.6306699,32.1600785 51.1414717,33.4166508 52.1630752,34.4178222 C53.1846787,35.4189937 54.431035,35.9195794 55.902144,35.9195794 C57.0872041,35.9195794 58.1496717,35.6641785 59.089547,35.1533767 C60.0294222,34.642575 60.7854088,33.9581006 61.3575067,33.0999537 L61.3575067,28.2575531 C60.8262729,27.3994061 60.0907184,26.7047157 59.1508432,26.1734819 C58.2109679,25.6422481 57.1280682,25.3766312 55.902144,25.3766312 C54.431035,25.3766312 53.1846787,25.8772169 52.1630752,26.8783883 C51.1414717,27.8795598 50.6306699,29.1361321 50.6306699,30.6481053 Z" id="Shape"></path>
                    <path d="M108.494293,45.7882693 L97.4609747,45.7882693 L97.4609747,42.8460512 C96.8071485,43.9085188 95.7548969,44.7666658 94.3042199,45.420492 C92.8535429,46.0743182 91.2496254,46.4012314 89.4924674,46.4012314 C87.040619,46.4012314 84.7726592,45.696325 82.688588,44.2865121 C80.6045168,42.8766993 78.9597352,40.9560847 77.7542431,38.5246683 C76.5487509,36.093252 75.9460048,33.467731 75.9460048,30.6481053 C75.9460048,27.8284796 76.5487509,25.2029586 77.7542431,22.7715422 C78.9597352,20.3401259 80.6045168,18.4195113 82.688588,17.0096984 C84.7726592,15.5998856 87.040619,14.8949792 89.4924674,14.8949792 C91.2087613,14.8949792 92.8024627,15.2218923 94.2735718,15.8757185 C95.7446809,16.5295448 96.8071485,17.3876917 97.4609747,18.4501594 L97.4609747,2.8809219 L108.494293,2.8809219 L108.494293,45.7882693 Z M86.7341379,30.6481053 C86.7341379,32.1600785 87.2449397,33.4166508 88.2665432,34.4178222 C89.2881467,35.4189937 90.534503,35.9195794 92.005612,35.9195794 C93.1906721,35.9195794 94.2531397,35.6641785 95.193015,35.1533767 C96.1328902,34.642575 96.8888768,33.9581006 97.4609747,33.0999537 L97.4609747,28.2575531 C96.9297409,27.3994061 96.1941864,26.7047157 95.2543112,26.1734819 C94.3144359,25.6422481 93.2315362,25.3766312 92.005612,25.3766312 C90.534503,25.3766312 89.2881467,25.8772169 88.2665432,26.8783883 C87.2449397,27.8795598 86.7341379,29.1361321 86.7341379,30.6481053 Z" id="Shape"></path>
                    <path d="M124.186123,15.5079413 L124.186123,45.7882693 L113.152805,45.7882693 L113.152805,15.5079413 L124.186123,15.5079413 Z M118.669464,0 C120.426622,0 121.938595,0.633394175 123.205383,1.90018253 C124.472172,3.16697088 125.105566,4.67894407 125.105566,6.43610211 C125.105566,8.19326014 124.472172,9.70523333 123.205383,10.9720217 C121.938595,12.23881 120.426622,12.8722042 118.669464,12.8722042 C116.912306,12.8722042 115.400332,12.23881 114.133544,10.9720217 C112.866756,9.70523333 112.233361,8.19326014 112.233361,6.43610211 C112.233361,4.67894407 112.866756,3.16697088 114.133544,1.90018253 C115.400332,0.633394175 116.912306,0 118.669464,0 Z" id="Shape"></path>
                    <path d="M143.494429,14.8949792 C146.436647,14.8949792 149.113248,15.5794535 151.524232,16.9484022 C153.935217,18.3173509 155.825183,20.2073174 157.194132,22.6183017 C158.563081,25.029286 159.247555,27.7263192 159.247555,30.7094015 C159.247555,33.6516196 158.563081,36.3180047 157.194132,38.708557 C155.825183,41.0991092 153.935217,42.9788596 151.524232,44.3478083 C149.113248,45.716757 146.436647,46.4012314 143.494429,46.4012314 C140.511347,46.4012314 137.824529,45.716757 135.433977,44.3478083 C133.043425,42.9788596 131.163675,41.0991092 129.794726,38.708557 C128.425777,36.3180047 127.741303,33.6516196 127.741303,30.7094015 C127.741303,27.7263192 128.425777,25.029286 129.794726,22.6183017 C131.163675,20.2073174 133.043425,18.3173509 135.433977,16.9484022 C137.824529,15.5794535 140.511347,14.8949792 143.494429,14.8949792 Z M143.494429,25.4992236 C142.064184,25.4992236 140.879124,25.9895933 139.939249,26.9703326 C138.999373,27.951072 138.529436,29.1974283 138.529436,30.7094015 C138.529436,32.1805105 138.999373,33.3962187 139.939249,34.356526 C140.879124,35.3168333 142.064184,35.796987 143.494429,35.796987 C144.924674,35.796987 146.109734,35.3168333 147.049609,34.356526 C147.989484,33.3962187 148.459422,32.1805105 148.459422,30.7094015 C148.459422,29.1974283 147.989484,27.951072 147.049609,26.9703326 C146.109734,25.9895933 144.924674,25.4992236 143.494429,25.4992236 Z" id="Shape"></path>
                </g>
                <path d="M195.488599,0 C303.439816,0 391.163408,86.6047593 392.97019,194.125092 L367.752284,194.125092 C365.595795,100.462231 289.143898,25.1995532 195.148064,25.1995532 C113.316263,25.1995532 44.7814736,82.2431212 26.9907499,158.809344 L1.76852626,158.809591 C19.7576346,68.2574632 99.6519247,0 195.488599,0 Z" id="Combined-Shape" fill-rule="nonzero"></path>
            </g>
        </g>
    </g>
</svg>